<svg width="87" height="49" viewBox="0 0 87 49" fill="none" xmlns="http://www.w3.org/2000/svg">
<path d="M20.8637 22.3307C23.0006 22.3307 24.7328 20.5548 24.7328 18.3641C24.7328 16.1734 23.0006 14.3975 20.8637 14.3975C18.7269 14.3975 16.9946 16.1734 16.9946 18.3641C16.9946 20.5548 18.7269 22.3307 20.8637 22.3307Z" stroke="white" stroke-width="0.731399" stroke-miterlimit="10"/>
<path d="M23.9586 10.2721C26.0954 10.2721 27.8277 8.4962 27.8277 6.30549C27.8277 4.11479 26.0954 2.33887 23.9586 2.33887C21.8217 2.33887 20.0895 4.11479 20.0895 6.30549C20.0895 8.4962 21.8217 10.2721 23.9586 10.2721Z" stroke="white" stroke-width="0.731399" stroke-miterlimit="10"/>
<path d="M24.1095 6.74159C24.1405 6.73953 24.1707 6.73085 24.198 6.71613C24.2253 6.70141 24.2492 6.68099 24.268 6.65626C24.6483 6.13209 24.1656 5.97606 24.1656 5.97606L16.6882 6.57337C16.6525 6.57798 16.6161 6.5738 16.5824 6.56121C16.5486 6.54862 16.5184 6.52798 16.4944 6.50109C16.4704 6.4742 16.4533 6.44186 16.4446 6.40688C16.4359 6.37189 16.4358 6.33532 16.4444 6.30031C16.5764 5.67774 16.8051 5.07969 17.1222 4.52789C17.1606 4.45771 17.2172 4.39916 17.2861 4.35837C17.3549 4.31759 17.4335 4.29606 17.5135 4.29606C17.5935 4.29606 17.672 4.31759 17.7409 4.35837C17.8097 4.39916 17.8663 4.45771 17.9048 4.52789L17.9023 5.14226C17.8998 5.18413 17.91 5.22578 17.9316 5.26172C17.9738 5.32609 18.0306 5.37956 18.0974 5.41776C18.129 5.43422 18.1642 5.44272 18.1999 5.44252C18.2355 5.44233 18.2706 5.43344 18.3021 5.41663C18.3335 5.39982 18.3604 5.3756 18.3804 5.34606C18.4004 5.31651 18.4129 5.28255 18.4168 5.2471C18.4753 4.7595 18.4899 3.66727 17.4708 3.62339C16.0958 3.55512 15.7374 6.15647 15.6521 7.1146C15.6479 7.15977 15.6534 7.20531 15.6682 7.24819C15.683 7.29107 15.7067 7.33031 15.7379 7.3633C15.769 7.39628 15.8068 7.42225 15.8488 7.43949C15.8907 7.45672 15.9359 7.46481 15.9812 7.46324H17.1027C17.1336 7.46342 17.164 7.47005 17.1922 7.4827C17.2204 7.49534 17.2456 7.51373 17.2662 7.53667C17.2869 7.55962 17.3025 7.58663 17.3121 7.61596C17.3218 7.6453 17.3252 7.67632 17.3221 7.70704L16.7979 13.3486C16.7938 13.4015 16.7704 13.451 16.7323 13.4878C16.6941 13.5247 16.6437 13.5463 16.5907 13.5485L15.0206 13.6411C14.9873 13.6428 14.954 13.6368 14.9233 13.6238C14.8926 13.6108 14.8652 13.591 14.8431 13.566C14.8211 13.5409 14.805 13.5112 14.7961 13.479C14.7871 13.4469 14.7856 13.4131 14.7915 13.3803C14.8458 13.1094 14.8785 12.8347 14.889 12.5587C14.889 12.2807 14.6452 12.1783 14.5184 12.1003C14.5011 12.0887 14.4811 12.0815 14.4604 12.0794C14.4396 12.0773 14.4187 12.0804 14.3994 12.0883C14.3801 12.0963 14.363 12.1089 14.3498 12.125C14.3365 12.1411 14.3274 12.1603 14.3234 12.1808L13.7017 15.1527C13.6937 15.1875 13.6944 15.2237 13.7038 15.2581C13.7131 15.2926 13.7308 15.3242 13.7553 15.3502C13.8284 15.4253 13.9263 15.4712 14.0308 15.4794C14.0801 15.4837 14.1295 15.4714 14.171 15.4445C14.2125 15.4175 14.2438 15.3775 14.26 15.3307L14.516 14.5993C14.5293 14.5593 14.5539 14.524 14.5867 14.4977C14.6196 14.4713 14.6594 14.4549 14.7013 14.4505L16.5688 14.2653C16.603 14.2617 16.6377 14.2662 16.6698 14.2785C16.702 14.2908 16.7309 14.3104 16.754 14.336L20.7524 18.7244C20.773 18.7472 20.7982 18.7655 20.8263 18.7781C20.8545 18.7907 20.8849 18.7973 20.9157 18.7975H21.0669C21.1133 18.7977 21.1586 18.7832 21.1963 18.7561C21.234 18.7289 21.2621 18.6905 21.2765 18.6463L23.1733 13.0243C23.1854 12.9886 23.1881 12.9503 23.1813 12.9132C23.1745 12.8761 23.1583 12.8413 23.1343 12.8122L18.7459 7.54613C18.7258 7.52338 18.7109 7.49659 18.702 7.46757C18.6932 7.43855 18.6907 7.40798 18.6947 7.37791V7.32671C18.7008 7.2761 18.7243 7.22919 18.7613 7.19404C18.7982 7.1589 18.8462 7.1377 18.897 7.13411L24.1095 6.74159ZM22.1371 14.0141L20.9181 17.3566C20.9049 17.3921 20.8828 17.4236 20.8539 17.4481C20.8251 17.4726 20.7904 17.4893 20.7533 17.4967C20.7161 17.504 20.6777 17.5017 20.6417 17.49C20.6057 17.4783 20.5733 17.4575 20.5476 17.4298L17.8487 14.5042C17.8219 14.4746 17.8035 14.4383 17.7956 14.3991C17.7876 14.3599 17.7904 14.3193 17.8037 14.2816C17.8169 14.2439 17.8401 14.2105 17.8708 14.1849C17.9014 14.1592 17.9385 14.1424 17.9779 14.136L21.8787 13.507C21.9092 13.504 21.9401 13.5073 21.9692 13.5168C21.9984 13.5263 22.0253 13.5417 22.0482 13.5621C22.0711 13.5825 22.0895 13.6074 22.1023 13.6353C22.1151 13.6631 22.122 13.6934 22.1225 13.724V13.9361C22.1326 13.9609 22.1376 13.9874 22.1371 14.0141ZM21.7568 12.6757L17.7707 13.3047C17.7378 13.3081 17.7046 13.3042 17.6735 13.2932C17.6423 13.2821 17.614 13.2643 17.5907 13.2409C17.5673 13.2175 17.5494 13.1893 17.5384 13.1581C17.5274 13.127 17.5234 13.0937 17.5269 13.0609L18.0145 8.42868C18.0223 8.38976 18.0404 8.35365 18.0669 8.3241C18.0934 8.29456 18.1274 8.27267 18.1652 8.26072C18.2031 8.24877 18.2434 8.24719 18.2821 8.25615C18.3208 8.26511 18.3563 8.28428 18.3851 8.31166L21.8885 12.3124C21.9141 12.3422 21.9313 12.3783 21.9383 12.417C21.9454 12.4557 21.9421 12.4955 21.9287 12.5325C21.9153 12.5694 21.8923 12.6022 21.8621 12.6273C21.8319 12.6525 21.7956 12.6692 21.7568 12.6757Z" fill="white" stroke="white" stroke-width="0.2438" stroke-miterlimit="10"/>
<path d="M65.6303 41.2967L67.3101 36.8303L63.4995 34.0461H68.3731L69.9309 29.6211L71.2012 34.1265H75.8699L71.9374 36.7498L73.1272 41.2967L69.6847 38.7148" fill="#F57520"/>
<path d="M45.5347 48.7633H50.4261L64.033 1.62793H59.1417L45.5347 48.7633Z" fill="white"/>
<path fill-rule="evenodd" clip-rule="evenodd" d="M52.7383 48.7628L54.2502 44.0493H71.4145L71.7135 44.0495C72.1615 44.05 72.5882 44.0505 72.9986 44.0403C75.29 43.9169 77.3833 42.6646 78.9995 41.0182C80.6744 39.3121 81.6131 37.0157 81.6134 34.6235C81.6135 32.2156 80.6631 29.9051 78.9693 28.1955C78.1052 27.3232 77.094 26.9124 75.9914 26.7165C75.2809 26.6217 74.5645 26.5653 73.8648 26.5419C73.5559 26.5356 73.2432 26.5335 72.9276 26.5314C72.8257 26.5307 72.7235 26.53 72.6211 26.5292H58.8748L60.2088 22.2603H66.9678C68.1738 22.2603 68.8877 22.2729 69.5087 22.2839C70.5363 22.3021 71.3097 22.3158 73.6379 22.2603C74.8619 22.2312 75.6672 22.1925 76.3827 21.9992C77.54 21.5659 78.6006 20.8822 79.4828 19.9832C81.0516 18.3844 81.9309 16.2324 81.9312 13.9907C81.9313 11.7342 81.0694 9.27717 79.4828 7.67505C77.8965 6.07327 75.7531 5.82592 73.5007 5.80743H65.1002L66.0785 1.62751H72.126C72.6095 1.62751 72.9971 1.62295 73.3334 1.61899C74.4817 1.60547 75.0309 1.59901 76.7506 1.80538C76.989 1.83399 77.2073 1.878 77.4097 1.93574C79.4346 2.29055 81.2992 3.03294 82.8138 4.56234C85.2684 7.04111 86.6069 10.4995 86.6228 13.9907C86.6076 17.4597 85.2409 20.7856 82.8138 23.2604C82.5035 23.5768 82.1776 23.8528 81.838 24.0938C82.0669 24.2688 82.2899 24.4645 82.5066 24.6832C85.1271 27.3283 86.605 30.8981 86.622 34.6235C86.6057 38.3253 85.1467 41.8745 82.5556 44.5154C80.8927 46.2102 78.8475 47.4084 76.6185 48.0711C75.3662 48.51 73.9359 48.7628 72.3039 48.7628H52.7383Z" fill="white"/>
<path d="M0.889038 1.62695H5.69151L17.1641 41.3807L15.3854 48.7623L0.889038 1.62695Z" fill="white"/>
<path d="M17.2539 48.7623H21.9674L31.9281 10.1647L43.3117 48.7623L45.624 41.2028L33.7068 1.62695H29.2601L17.2539 48.7623Z" fill="white"/>
</svg>
